<svg width="32" height="32" viewBox="0 0 32 32" fill="none" xmlns="http://www.w3.org/2000/svg">
<path d="M8.81454 14.9545L16.9985 5.50677C17.5385 4.88327 18.4908 4.81452 19.1148 5.35502L22.1383 7.97402C22.7618 8.51402 22.8303 9.46627 22.2895 10.0898L14.1055 19.5383L8.81454 14.9545Z" fill="#F2CF61"/>
<path d="M11.1593 22.9393L14.1055 19.538L8.81452 14.9548L5.86827 18.3563C5.32827 18.98 5.39652 19.932 6.02002 20.4723L9.04352 23.0913C9.66702 23.6313 10.6193 23.5628 11.1593 22.9393Z" fill="#F5F5F5"/>
<path d="M10.151 18.7583C10.5675 19.1193 10.6138 19.7518 10.252 20.169C9.8908 20.5858 9.2578 20.631 8.8413 20.27C8.4243 19.909 8.37879 19.2763 8.74029 18.8593C9.10104 18.4425 9.73405 18.397 10.151 18.7583Z" fill="#406A80"/>
<path d="M10.246 19.514C10.246 19.0998 9.91025 18.764 9.49603 18.764C9.08182 18.764 8.74603 19.0998 8.74603 19.514C8.74603 19.9283 9.08182 20.264 9.49603 20.264C9.91025 20.264 10.246 19.9283 10.246 19.514Z" fill="#335466"/>
<path d="M10.0283 14.935L20.3945 7.95054C21.0785 7.48954 22.0155 7.67204 22.4765 8.35629L24.7118 11.674C25.1728 12.358 24.9898 13.295 24.306 13.756L13.9393 20.7405L10.0283 14.935Z" fill="#88C5CC"/>
<path d="M10.2075 23.2548L13.9395 20.7403L10.0283 14.935L6.29653 17.4498C5.61253 17.9108 5.42953 18.8478 5.89078 19.532L8.12528 22.8493C8.58703 23.5333 9.52353 23.7158 10.2075 23.2548Z" fill="#E6E6E6"/>
<path d="M10.3253 18.9553C10.6333 19.4125 10.5123 20.035 10.0548 20.3435C9.59727 20.6515 8.97477 20.5303 8.66652 20.0728C8.35852 19.6155 8.47952 18.9928 8.93752 18.6848C9.39452 18.3765 10.017 18.498 10.3253 18.9553Z" fill="#406A80"/>
<path d="M10.2455 19.514C10.2455 19.0998 9.90976 18.764 9.49554 18.764C9.08133 18.764 8.74554 19.0998 8.74554 19.514C8.74554 19.9283 9.08133 20.264 9.49554 20.264C9.90976 20.264 10.2455 19.9283 10.2455 19.514Z" fill="#335466"/>
<path d="M11.121 15.2L22.8698 10.9325C23.6453 10.6513 24.5105 11.055 24.7918 11.8305L26.157 15.5903C26.4388 16.3658 26.0353 17.2305 25.2595 17.5123L13.5105 21.7798L11.121 15.2Z" fill="#4AB8A1"/>
<path d="M9.28078 23.3158L13.5108 21.7795L11.121 15.2L6.89103 16.7363C6.11528 17.018 5.71178 17.8828 5.99353 18.6583L7.35878 22.418C7.64078 23.1935 8.50528 23.5975 9.28078 23.3158Z" fill="#F5F5F5"/>
<path opacity="0.6" d="M10.2563 15.5L6.89104 16.7293C6.83979 16.748 6.79004 16.7733 6.74129 16.797C6.72654 16.8043 6.71279 16.815 6.69779 16.8228C6.66504 16.84 6.63279 16.8588 6.60204 16.8783C6.58604 16.8885 6.57079 16.9 6.55504 16.9108C6.52729 16.93 6.49929 16.95 6.47304 16.971C6.45779 16.983 6.44379 16.9955 6.42954 17.008C6.40354 17.03 6.37879 17.0528 6.35479 17.076C6.34204 17.089 6.32929 17.102 6.31679 17.1153C6.29279 17.1405 6.27029 17.1665 6.24879 17.1933C6.23804 17.2063 6.22729 17.2193 6.21704 17.2325C6.19479 17.2618 6.17379 17.2918 6.15329 17.3225C6.14579 17.3348 6.13754 17.3465 6.12979 17.359C6.10829 17.3938 6.08879 17.4293 6.07054 17.4658C6.06529 17.475 6.06029 17.484 6.05554 17.4933C6.03354 17.5388 6.01554 17.5853 5.99829 17.6328C5.99829 17.6333 5.99979 17.6338 5.99979 17.6343L5.99979 18.6655L7.36029 22.4185C7.64204 23.194 8.50579 23.5978 9.28154 23.3163L13.511 21.773L11.235 15.5005L10.2565 15.5005L10.2565 15.5L10.2563 15.5Z" fill="#E6E6E6"/>
<path d="M10.436 19.1725C10.624 19.6908 10.356 20.2655 9.83727 20.4538C9.31852 20.642 8.74402 20.3735 8.55602 19.855C8.36752 19.3368 8.63577 18.762 9.15477 18.5738C9.67277 18.3858 10.2475 18.6543 10.436 19.1725Z" fill="#406A80"/>
<path d="M10.2455 19.514C10.2455 19.0998 9.90976 18.764 9.49554 18.764C9.08133 18.764 8.74554 19.0998 8.74554 19.514C8.74554 19.9283 9.08133 20.264 9.49554 20.264C9.90976 20.264 10.2455 19.9283 10.2455 19.514Z" fill="#335466"/>
<path d="M12.5 16L24.996 16C25.8208 16 26.5 16.689 26.5 17.514L26.5 21.514C26.5 22.339 25.8208 23 24.996 23L12.5 23L12.5 16Z" fill="#E16B5A"/>
<path d="M7.99603 23L12.5 23L12.5 16L7.99603 16C7.17103 16 6.50003 16.689 6.50003 17.514L6.50003 21.514C6.50003 22.339 7.17103 23 7.99603 23Z" fill="#F5F5F5"/>
<path d="M12 19.5C12 20.8787 10.8781 22 9.5 22C8.12062 22 7 20.8788 7 19.5C7 18.1212 8.12062 17 9.5 17C10.8781 17 12 18.1219 12 19.5Z" fill="#406A80"/>
</svg>
